<svg xmlns="http://www.w3.org/2000/svg" width="720" height="360">
<rect width="720" height="360" fill="#f7f4ef"/>
<text x="360" y="28" text-anchor="middle" font-family="sans-serif" font-size="14" font-weight="600">R3-C1.2 QM 组间 FWHM / D200-220</text>
<rect x="80" y="168.3" width="40" height="71.7" fill="#b45309"/>
<rect x="130" y="237.3" width="40" height="2.7" fill="#0f766e"/>
<text x="125" y="260" text-anchor="middle" font-size="12" font-family="sans-serif">A</text>
<text x="100" y="280" text-anchor="middle" font-size="10" font-family="sans-serif">48m</text>
<text x="150" y="280" text-anchor="middle" font-size="10" font-family="sans-serif">0.007</text>
<rect x="230" y="168.3" width="40" height="71.7" fill="#b45309"/>
<rect x="280" y="237.3" width="40" height="2.7" fill="#0f766e"/>
<text x="275" y="260" text-anchor="middle" font-size="12" font-family="sans-serif">B</text>
<text x="250" y="280" text-anchor="middle" font-size="10" font-family="sans-serif">48m</text>
<text x="300" y="280" text-anchor="middle" font-size="10" font-family="sans-serif">0.007</text>
<rect x="380" y="120.0" width="40" height="120.0" fill="#b45309"/>
<rect x="430" y="227.7" width="40" height="12.3" fill="#0f766e"/>
<text x="425" y="260" text-anchor="middle" font-size="12" font-family="sans-serif">C</text>
<text x="400" y="280" text-anchor="middle" font-size="10" font-family="sans-serif">80m</text>
<text x="450" y="280" text-anchor="middle" font-size="10" font-family="sans-serif">0.031</text>
<rect x="530" y="120.0" width="40" height="120.0" fill="#b45309"/>
<rect x="580" y="239.3" width="40" height="0.7" fill="#0f766e"/>
<text x="575" y="260" text-anchor="middle" font-size="12" font-family="sans-serif">D</text>
<text x="550" y="280" text-anchor="middle" font-size="10" font-family="sans-serif">80m</text>
<text x="600" y="280" text-anchor="middle" font-size="10" font-family="sans-serif">0.002</text>
<text x="80" y="320" font-size="11" font-family="sans-serif">橙=mean FWHM m（≤120显示）  绿=D(200/220)×400</text></svg>