<svg xmlns="http://www.w3.org/2000/svg" width="720" height="420" viewBox="0 0 720 420">
<rect width="720" height="420" fill="#f7f4ef"/>
<text x="360.0" y="28" text-anchor="middle" font-family="-apple-system,PingFang SC,Microsoft YaHei,sans-serif" font-size="15" font-weight="600" fill="#1a1a1a">图3e  困难候选对的方位 RMSE vs T（机动能否打破）</text>
<rect x="70" y="48" width="490" height="316" fill="#ffffff" stroke="#d0ccc4" stroke-width="1"/>
<line x1="70.00" y1="48" x2="70.00" y2="364" stroke="#e8e4dc" stroke-width="1"/>
<text x="70.00" y="382" text-anchor="middle" font-size="11" fill="#555" font-family="sans-serif">60</text>
<line x1="151.67" y1="48" x2="151.67" y2="364" stroke="#e8e4dc" stroke-width="1"/>
<text x="151.67" y="382" text-anchor="middle" font-size="11" fill="#555" font-family="sans-serif">98.85</text>
<line x1="233.33" y1="48" x2="233.33" y2="364" stroke="#e8e4dc" stroke-width="1"/>
<text x="233.33" y="382" text-anchor="middle" font-size="11" fill="#555" font-family="sans-serif">162.9</text>
<line x1="315.00" y1="48" x2="315.00" y2="364" stroke="#e8e4dc" stroke-width="1"/>
<text x="315.00" y="382" text-anchor="middle" font-size="11" fill="#555" font-family="sans-serif">268.3</text>
<line x1="396.67" y1="48" x2="396.67" y2="364" stroke="#e8e4dc" stroke-width="1"/>
<text x="396.67" y="382" text-anchor="middle" font-size="11" fill="#555" font-family="sans-serif">442.1</text>
<line x1="478.33" y1="48" x2="478.33" y2="364" stroke="#e8e4dc" stroke-width="1"/>
<text x="478.33" y="382" text-anchor="middle" font-size="11" fill="#555" font-family="sans-serif">728.4</text>
<line x1="560.00" y1="48" x2="560.00" y2="364" stroke="#e8e4dc" stroke-width="1"/>
<text x="560.00" y="382" text-anchor="middle" font-size="11" fill="#555" font-family="sans-serif">1200</text>
<line x1="70" y1="364.00" x2="560" y2="364.00" stroke="#e8e4dc" stroke-width="1"/>
<text x="62" y="368.00" text-anchor="end" font-size="11" fill="#555" font-family="sans-serif">-0.01331</text>
<line x1="70" y1="300.80" x2="560" y2="300.80" stroke="#e8e4dc" stroke-width="1"/>
<text x="62" y="304.80" text-anchor="end" font-size="11" fill="#555" font-family="sans-serif">0.02529</text>
<line x1="70" y1="237.60" x2="560" y2="237.60" stroke="#e8e4dc" stroke-width="1"/>
<text x="62" y="241.60" text-anchor="end" font-size="11" fill="#555" font-family="sans-serif">0.06388</text>
<line x1="70" y1="174.40" x2="560" y2="174.40" stroke="#e8e4dc" stroke-width="1"/>
<text x="62" y="178.40" text-anchor="end" font-size="11" fill="#555" font-family="sans-serif">0.1025</text>
<line x1="70" y1="111.20" x2="560" y2="111.20" stroke="#e8e4dc" stroke-width="1"/>
<text x="62" y="115.20" text-anchor="end" font-size="11" fill="#555" font-family="sans-serif">0.1411</text>
<line x1="70" y1="48.00" x2="560" y2="48.00" stroke="#e8e4dc" stroke-width="1"/>
<text x="62" y="52.00" text-anchor="end" font-size="11" fill="#555" font-family="sans-serif">0.1797</text>
<text x="315.0" y="406" text-anchor="middle" font-size="12" fill="#333" font-family="sans-serif">观测时间 T (s)</text>
<text x="16" y="206.0" text-anchor="middle" font-size="12" fill="#333" font-family="sans-serif" transform="rotate(-90 16 206.0)">方位 RMSE (deg)</text>
<polyline fill="none" stroke="#c45c26" stroke-width="2" points="70.00,342.21 183.38,342.21 333.25,342.21 446.62,342.21 512.94,342.21 560.00,342.21"/>
<circle cx="70.00" cy="342.21" r="2.8" fill="#c45c26"/>
<circle cx="183.38" cy="342.21" r="2.8" fill="#c45c26"/>
<circle cx="333.25" cy="342.21" r="2.8" fill="#c45c26"/>
<circle cx="446.62" cy="342.21" r="2.8" fill="#c45c26"/>
<circle cx="512.94" cy="342.21" r="2.8" fill="#c45c26"/>
<circle cx="560.00" cy="342.21" r="2.8" fill="#c45c26"/>
<polyline fill="none" stroke="#1f6f8b" stroke-width="2" points="70.00,340.95 183.38,339.85 333.25,336.52 446.62,330.80 512.94,324.88 560.00,318.77"/>
<circle cx="70.00" cy="340.95" r="2.8" fill="#1f6f8b"/>
<circle cx="183.38" cy="339.85" r="2.8" fill="#1f6f8b"/>
<circle cx="333.25" cy="336.52" r="2.8" fill="#1f6f8b"/>
<circle cx="446.62" cy="330.80" r="2.8" fill="#1f6f8b"/>
<circle cx="512.94" cy="324.88" r="2.8" fill="#1f6f8b"/>
<circle cx="560.00" cy="318.77" r="2.8" fill="#1f6f8b"/>
<polyline fill="none" stroke="#2d6a4f" stroke-width="2" points="70.00,342.21 183.38,342.21 333.25,342.21 446.62,342.21 512.94,342.21 560.00,342.21"/>
<circle cx="70.00" cy="342.21" r="2.8" fill="#2d6a4f"/>
<circle cx="183.38" cy="342.21" r="2.8" fill="#2d6a4f"/>
<circle cx="333.25" cy="342.21" r="2.8" fill="#2d6a4f"/>
<circle cx="446.62" cy="342.21" r="2.8" fill="#2d6a4f"/>
<circle cx="512.94" cy="342.21" r="2.8" fill="#2d6a4f"/>
<circle cx="560.00" cy="342.21" r="2.8" fill="#2d6a4f"/>
<polyline fill="none" stroke="#7b2cbf" stroke-width="2" points="70.00,341.01 183.38,339.95 333.25,336.71 446.62,331.09 512.94,325.18 560.00,318.96"/>
<circle cx="70.00" cy="341.01" r="2.8" fill="#7b2cbf"/>
<circle cx="183.38" cy="339.95" r="2.8" fill="#7b2cbf"/>
<circle cx="333.25" cy="336.71" r="2.8" fill="#7b2cbf"/>
<circle cx="446.62" cy="331.09" r="2.8" fill="#7b2cbf"/>
<circle cx="512.94" cy="325.18" r="2.8" fill="#7b2cbf"/>
<circle cx="560.00" cy="318.96" r="2.8" fill="#7b2cbf"/>
<polyline fill="none" stroke="#bc4749" stroke-width="2" points="70.00,328.06 183.38,314.47 333.25,273.69 446.62,205.73 512.94,137.76 560.00,69.79"/>
<circle cx="70.00" cy="328.06" r="2.8" fill="#bc4749"/>
<circle cx="183.38" cy="314.47" r="2.8" fill="#bc4749"/>
<circle cx="333.25" cy="273.69" r="2.8" fill="#bc4749"/>
<circle cx="446.62" cy="205.73" r="2.8" fill="#bc4749"/>
<circle cx="512.94" cy="137.76" r="2.8" fill="#bc4749"/>
<circle cx="560.00" cy="69.79" r="2.8" fill="#bc4749"/>
<polyline fill="none" stroke="#023e8d" stroke-width="2" points="70.00,328.06 183.38,314.47 333.25,273.70 446.62,205.77 512.94,137.86 560.00,69.96"/>
<circle cx="70.00" cy="328.06" r="2.8" fill="#023e8d"/>
<circle cx="183.38" cy="314.47" r="2.8" fill="#023e8d"/>
<circle cx="333.25" cy="273.70" r="2.8" fill="#023e8d"/>
<circle cx="446.62" cy="205.77" r="2.8" fill="#023e8d"/>
<circle cx="512.94" cy="137.86" r="2.8" fill="#023e8d"/>
<circle cx="560.00" cy="69.96" r="2.8" fill="#023e8d"/>
<polyline fill="none" stroke="#9c6644" stroke-width="2" points="70.00,333.67 183.38,325.47 333.25,300.94 446.62,260.26 512.94,219.82 560.00,179.64"/>
<circle cx="70.00" cy="333.67" r="2.8" fill="#9c6644"/>
<circle cx="183.38" cy="325.47" r="2.8" fill="#9c6644"/>
<circle cx="333.25" cy="300.94" r="2.8" fill="#9c6644"/>
<circle cx="446.62" cy="260.26" r="2.8" fill="#9c6644"/>
<circle cx="512.94" cy="219.82" r="2.8" fill="#9c6644"/>
<circle cx="560.00" cy="179.64" r="2.8" fill="#9c6644"/>
<polyline fill="none" stroke="#333333" stroke-width="2" points="70.00,335.32 183.38,328.56 333.25,308.39 446.62,275.18 512.94,242.50 560.00,210.33"/>
<circle cx="70.00" cy="335.32" r="2.8" fill="#333333"/>
<circle cx="183.38" cy="328.56" r="2.8" fill="#333333"/>
<circle cx="333.25" cy="308.39" r="2.8" fill="#333333"/>
<circle cx="446.62" cy="275.18" r="2.8" fill="#333333"/>
<circle cx="512.94" cy="242.50" r="2.8" fill="#333333"/>
<circle cx="560.00" cy="210.33" r="2.8" fill="#333333"/>
<rect x="572" y="56" width="14" height="3" fill="#c45c26"/>
<text x="592" y="60" font-size="11" fill="#333" font-family="sans-serif">RS1,转角0°</text>
<rect x="572" y="74" width="14" height="3" fill="#1f6f8b"/>
<text x="592" y="78" font-size="11" fill="#333" font-family="sans-serif">RS1,转角15°</text>
<rect x="572" y="92" width="14" height="3" fill="#2d6a4f"/>
<text x="592" y="96" font-size="11" fill="#333" font-family="sans-serif">RS2,转角0°</text>
<rect x="572" y="110" width="14" height="3" fill="#7b2cbf"/>
<text x="592" y="114" font-size="11" fill="#333" font-family="sans-serif">RS2,转角15°</text>
<rect x="572" y="128" width="14" height="3" fill="#bc4749"/>
<text x="592" y="132" font-size="11" fill="#333" font-family="sans-serif">RS3,转角0°</text>
<rect x="572" y="146" width="14" height="3" fill="#023e8d"/>
<text x="592" y="150" font-size="11" fill="#333" font-family="sans-serif">RS3,转角15°</text>
<rect x="572" y="164" width="14" height="3" fill="#9c6644"/>
<text x="592" y="168" font-size="11" fill="#333" font-family="sans-serif">RS5,转角0°</text>
<rect x="572" y="182" width="14" height="3" fill="#333333"/>
<text x="592" y="186" font-size="11" fill="#333" font-family="sans-serif">RS5,转角15°</text>
<text x="70" y="418" font-size="10" fill="#777" font-family="sans-serif">RMSE 越小越难区分；RC3 仅允许使用仍保持困难的候选对</text>
</svg>