<svg xmlns="http://www.w3.org/2000/svg" width="720" height="420" viewBox="0 0 720 420">
<text x="360" y="24" text-anchor="middle" font-size="14">Fig2 repro z_r=18 m normalized depth distribution (Delta=0.1)</text>
<rect x="60" y="40" width="620" height="320" fill="none" stroke="#333"/>
<polyline fill="none" stroke="#c44" stroke-width="1.5" points="60.0,360.0 67.0,331.4 74.1,256.9 81.1,166.0 88.2,92.2 95.2,60.0 102.3,75.7 109.3,128.6 116.4,198.3 123.4,264.5 130.5,314.0 137.5,343.4 144.5,356.5 151.6,359.8 158.6,359.4 165.7,358.8 172.7,359.0 179.8,359.5 186.8,359.8 193.9,360.0 200.9,360.0 208.0,359.9 215.0,359.7 222.0,359.5 229.1,359.3 236.1,359.4 243.2,359.6 250.2,359.7 257.3,359.6 264.3,359.4 271.4,359.2 278.4,359.3 285.5,359.5 292.5,359.7 299.5,359.9 306.6,359.8 313.6,359.8 320.7,359.8 327.7,359.9 334.8,360.0 341.8,360.0 348.9,360.0 355.9,360.0 363.0,360.0 370.0,360.0 377.0,359.9 384.1,359.8 391.1,359.7 398.2,359.7 405.2,359.8 412.3,360.0 419.3,360.0 426.4,360.0 433.4,359.9 440.5,359.8 447.5,359.8 454.5,359.8 461.6,359.8 468.6,359.9 475.7,360.0 482.7,360.0 489.8,359.9 496.8,359.9 503.9,359.9 510.9,359.9 518.0,359.9 525.0,359.9 532.0,360.0 539.1,360.0 546.1,360.0 553.2,360.0 560.2,360.0 567.3,360.0 574.3,360.0 581.4,360.0 588.4,360.0 595.5,360.0 602.5,360.0 609.5,359.9 616.6,360.0 623.6,360.0 630.7,360.0 637.7,360.0 644.8,359.9 651.8,359.9 658.9,359.9 665.9,360.0 673.0,360.0 680.0,360.0"/>
<line x1="88.2" y1="40" x2="88.2" y2="360" stroke="#888" stroke-dasharray="4"/>
<polyline fill="none" stroke="#44c" stroke-width="1.5" points="60.0,360.0 67.0,360.0 74.1,360.0 81.1,360.0 88.2,359.9 95.2,359.9 102.3,359.9 109.3,359.8 116.4,359.7 123.4,359.6 130.5,359.5 137.5,359.6 144.5,359.6 151.6,359.8 158.6,359.9 165.7,359.9 172.7,360.0 179.8,359.9 186.8,359.9 193.9,359.8 200.9,359.7 208.0,359.4 215.0,358.8 222.0,358.1 229.1,357.1 236.1,356.0 243.2,355.0 250.2,354.2 257.3,353.3 264.3,352.2 271.4,350.5 278.4,348.3 285.5,345.4 292.5,342.6 299.5,341.4 306.6,343.8 313.6,350.6 320.7,358.3 327.7,358.1 334.8,338.7 341.8,295.8 348.9,241.7 355.9,204.1 363.0,209.7 370.0,261.9 377.0,328.9 384.1,359.7 391.1,318.3 398.2,215.3 405.2,107.1 412.3,60.0 419.3,104.0 426.4,211.3 433.4,315.8 440.5,359.6 447.5,330.0 454.5,261.7 461.6,206.8 468.6,198.5 475.7,235.1 482.7,290.0 489.8,335.0 496.8,356.8 503.9,359.0 510.9,352.4 518.0,346.1 525.0,343.6 532.0,344.5 539.1,346.9 546.1,349.5 553.2,352.0 560.2,354.4 567.3,356.6 574.3,358.5 581.4,359.7 588.4,360.0 595.5,359.5 602.5,358.7 609.5,358.2 616.6,358.2 623.6,358.5 630.7,359.0 637.7,359.3 644.8,359.5 651.8,359.5 658.9,359.4 665.9,359.3 673.0,359.3 680.0,359.5"/>
<line x1="412.3" y1="40" x2="412.3" y2="360" stroke="#888" stroke-dasharray="4"/>
<text x="360" y="400" text-anchor="middle" font-size="12">z (m); dashed=true depth; red=zs4 blue=zs50</text>
</svg>